<svg 
 xmlns="http://www.w3.org/2000/svg"
 xmlns:xlink="http://www.w3.org/1999/xlink"
 width="20px" height="20px">
<path fill-rule="evenodd"  fill="rgba(255, 255, 255, 0.5)"
 d="M19.806,18.802 L16.405,15.166 C17.784,13.507 18.542,11.439 18.542,9.263 C18.542,4.156 14.383,0.000 9.270,0.000 C4.159,0.000 -0.000,4.155 -0.000,9.263 C-0.000,14.370 4.159,18.525 9.271,18.525 C10.610,18.524 11.902,18.245 13.109,17.696 C13.468,17.532 13.626,17.110 13.463,16.752 C13.299,16.393 12.874,16.234 12.519,16.399 C11.497,16.863 10.404,17.099 9.270,17.100 C4.945,17.100 1.426,13.584 1.426,9.263 C1.426,4.942 4.945,1.425 9.270,1.425 C13.596,1.425 17.116,4.941 17.116,9.263 C17.116,11.297 16.339,13.224 14.930,14.690 C14.657,14.974 14.666,15.425 14.949,15.698 C14.970,15.718 14.998,15.726 15.023,15.744 C15.042,15.772 15.052,15.805 15.076,15.831 L18.764,19.774 C18.904,19.924 19.095,20.000 19.285,20.000 C19.460,20.000 19.634,19.936 19.772,19.808 C20.060,19.540 20.075,19.089 19.806,18.802 L19.806,18.802 Z"/>
</svg>